<svg xmlns="http://www.w3.org/2000/svg" xmlns:xlink="http://www.w3.org/1999/xlink" version="1.0" x="0px" y="0px" viewBox="0 0 50 62.5" enable-background="new 0 0 50 50" xml:space="preserve"><g><path fill="#000000" d="M42.65,1H8.681C5.232,1,2,3.917,2,7.372v19.669C2,30.492,5.232,34,8.681,34h4.713L4.571,49.727L26.6,34   H42.65c3.453,0,6.35-3.508,6.35-6.959V7.372C49,3.917,46.104,1,42.65,1z M25,16.123c0,3.39-0.758,5.354-2.662,6.959   C20.912,24.272,19,24.986,17,25.105v-2.736C20,21.774,21.723,20,21.604,17H17v-7h8V16.123z M35,16.123   c0,3.39-0.758,5.354-2.662,6.959C30.91,24.272,29,24.986,27,25.105v-2.736C30,21.774,31.861,20,31.742,17H27v-7h8V16.123z"/></g><text x="0" y="65" fill="#000000" font-size="5px" font-weight="bold" font-family="'Helvetica Neue', Helvetica, Arial-Unicode, Arial, Sans-serif">Created by Mister Pixel</text><text x="0" y="70" fill="#000000" font-size="5px" font-weight="bold" font-family="'Helvetica Neue', Helvetica, Arial-Unicode, Arial, Sans-serif">from the Noun Project</text></svg>